<?xml version="1.0" standalone="no"?>
<!DOCTYPE svg PUBLIC "-//W3C//DTD SVG 20010904//EN"
 "http://www.w3.org/TR/2001/REC-SVG-20010904/DTD/svg10.dtd">
<svg version="1.0" xmlns="http://www.w3.org/2000/svg"
 width="304.000000pt" height="304.000000pt" viewBox="0 0 304.000000 304.000000"
 preserveAspectRatio="xMidYMid meet">
<metadata>
Created by potrace 1.14, written by Peter Selinger 2001-2017
</metadata>
<g transform="translate(0.000000,304.000000) scale(0.100000,-0.100000)"
fill="#000000" stroke="none">
<path d="M2242 2944 c-169 -153 -274 -365 -297 -603 -8 -78 -8 -181 -1 -305 9
-158 13 -156 40 16 25 157 57 258 158 493 99 228 181 455 165 455 -2 0 -31
-25 -65 -56z"/>
<path d="M706 2597 c-7 -38 -2 -106 19 -251 11 -69 34 -175 66 -296 17 -63 43
-163 59 -222 l27 -106 -57 -7 c-75 -9 -155 8 -212 44 -25 16 -82 72 -127 124
-123 142 -191 180 -191 106 0 -35 66 -163 123 -239 110 -147 216 -211 390
-235 58 -8 74 -13 133 -41 74 -36 109 -77 177 -215 46 -91 69 -128 90 -139 26
-14 29 -14 47 8 10 12 17 32 15 45 -5 39 -23 110 -43 168 -43 124 -36 237 20
325 72 115 129 253 143 348 22 147 26 327 9 333 -6 2 -21 -22 -34 -54 -80
-210 -105 -259 -189 -377 -62 -87 -90 -111 -119 -101 -25 7 -46 61 -117 300
-99 334 -174 515 -215 515 -4 0 -11 -15 -14 -33z"/>
<path d="M2570 2584 c-170 -91 -325 -234 -440 -405 -64 -97 -144 -252 -138
-270 5 -15 415 407 559 576 19 22 36 42 39 45 37 33 89 100 79 100 -8 0 -52
-21 -99 -46z"/>
<path d="M1627 2358 c9 -54 42 -148 73 -208 41 -82 169 -249 191 -250 12 0 0
121 -18 184 -19 67 -59 142 -106 196 -32 37 -123 110 -138 110 -5 0 -6 -15 -2
-32z"/>
<path d="M2489 2146 c-2 -2 -26 -7 -54 -10 -108 -14 -253 -115 -304 -211 -32
-61 -29 -65 36 -48 70 18 173 69 239 118 60 45 132 114 145 138 8 15 5 17 -24
17 -19 0 -36 -2 -38 -4z"/>
<path d="M2278 1668 c-21 -17 -120 -327 -164 -518 -20 -85 -42 -178 -49 -207
-26 -109 -58 -123 -126 -57 -82 80 -174 227 -239 379 -18 44 -37 84 -41 89
-10 12 -28 -32 -24 -59 2 -11 6 -51 10 -90 19 -198 66 -331 176 -494 90 -133
95 -186 40 -400 -31 -119 -32 -148 -4 -168 44 -33 63 -14 119 118 19 46 42
101 51 122 39 91 147 164 273 183 156 25 283 121 365 275 106 198 121 259 64
250 -36 -5 -52 -19 -120 -110 -134 -177 -188 -213 -327 -218 l-84 -2 5 32 c3
18 21 109 40 202 46 221 58 312 72 530 4 61 9 112 11 114 5 6 -16 41 -24 41
-5 0 -15 -6 -24 -12z"/>
<path d="M470 1009 c1 -21 28 -49 105 -109 228 -176 417 -366 568 -570 39 -52
72 -97 73 -99 2 -1 8 -1 14 1 14 4 -119 226 -231 384 -101 142 -281 327 -357
368 -62 33 -172 49 -172 25z"/>
<path d="M1297 728 c-54 -90 -70 -229 -41 -340 16 -61 60 -158 73 -158 5 0 18
35 28 78 25 108 25 316 -1 392 -10 30 -22 59 -26 63 -4 5 -19 -11 -33 -35z"/>
<path d="M280 471 c0 -14 902 -331 944 -331 16 0 15 4 -10 26 -50 44 -186 130
-272 173 -99 50 -235 97 -340 117 -77 16 -322 27 -322 15z"/>
<path d="M682 174 c-34 -7 -86 -23 -114 -36 l-53 -24 85 -27 c127 -40 237 -50
365 -35 48 6 105 23 105 32 0 2 -21 17 -47 34 -97 61 -219 81 -341 56z"/>
</g>
</svg>
